<!-- Generated by IcoMoon.io -->
<svg version="1.1" xmlns="http://www.w3.org/2000/svg" width="32" height="32" viewBox="0 0 32 32">
<title>global</title>
<path fill="#fff" d="M10.080 23.333c1.108 5.144 3.341 8.667 5.921 8.667s4.813-3.522 5.921-8.667h-11.842z"></path>
<path fill="#fff" d="M24.631 8.667h5.578c-1.773-3.429-4.745-6.127-8.367-7.55 1.279 1.996 2.212 4.63 2.789 7.55z"></path>
<path fill="#73943d" d="M22.377 11.333h-12.754c-0.188 1.477-0.29 3.043-0.29 4.667s0.102 3.19 0.29 4.667h12.754c0.188-1.477 0.29-3.043 0.29-4.667s-0.102-3.19-0.29-4.667z"></path>
<path fill="#73943d" d="M25.332 16c0 1.569-0.099 3.137-0.281 4.667h6.252c0.45-1.477 0.696-3.043 0.696-4.667s-0.246-3.19-0.696-4.667h-6.252c0.182 1.529 0.281 3.098 0.281 4.667z"></path>
<path fill="#fff" d="M21.922 8.667c-1.108-5.144-3.341-8.667-5.921-8.667s-4.813 3.522-5.921 8.667h11.842z"></path>
<path fill="#fff" d="M7.367 23.333h-5.578c1.773 3.429 4.745 6.127 8.367 7.55-1.279-1.996-2.212-4.63-2.789-7.55z"></path>
<path fill="#73943d" d="M6.667 16c0-1.569 0.099-3.137 0.281-4.667h-6.252c-0.45 1.477-0.696 3.043-0.696 4.667s0.246 3.19 0.696 4.667h6.252c-0.182-1.529-0.281-3.098-0.281-4.667z"></path>
<path fill="#fff" d="M24.631 23.333c-0.577 2.92-1.509 5.554-2.789 7.55 3.621-1.423 6.593-4.121 8.367-7.55h-5.578z"></path>
<path fill="#fff" d="M7.367 8.667c0.577-2.92 1.509-5.554 2.789-7.55-3.621 1.423-6.593 4.121-8.367 7.55h5.578z"></path>
</svg>
