<!-- Generated by IcoMoon.io -->
<svg version="1.1" xmlns="http://www.w3.org/2000/svg" width="43" height="32" viewBox="0 0 43 32">
<title>people</title>
<path fill="#73943d" d="M21.376 21.080c-6.735 0-12.416 1.13-12.416 5.48s5.681 5.44 12.416 5.44c6.735 0 12.416-1.13 12.416-5.48s-5.72-5.44-12.416-5.44z"></path>
<path fill="#fff" d="M21.377 16.93c1.083 0.001 2.155-0.217 3.156-0.642s1.909-1.049 2.672-1.835c0.764-0.786 1.369-1.72 1.779-2.747s0.618-2.127 0.612-3.236c0-2.233-0.866-4.375-2.407-5.954s-3.632-2.466-5.811-2.466-4.27 0.887-5.811 2.466c-1.541 1.579-2.407 3.721-2.407 5.954-0.006 1.109 0.201 2.209 0.612 3.236s1.015 1.96 1.779 2.747c0.764 0.786 1.672 1.41 2.672 1.835s2.073 0.643 3.156 0.642z"></path>
<path fill="#fff" d="M39.219 10.44c0.274-1.055 0.309-2.159 0.102-3.23s-0.65-2.078-1.295-2.947c-0.645-0.868-1.475-1.574-2.428-2.063s-2.001-0.749-3.066-0.76c-0.466 0.004-0.93 0.054-1.386 0.15-0.032 0.003-0.063 0.014-0.090 0.031s-0.050 0.041-0.067 0.069c-0.024 0.032-0.037 0.070-0.037 0.11s0.013 0.079 0.037 0.11c1.33 1.919 2.064 4.204 2.108 6.556s-0.606 4.664-1.863 6.634c-0.028 0.044-0.045 0.095-0.050 0.147s0.004 0.105 0.024 0.154 0.052 0.091 0.092 0.124c0.040 0.033 0.088 0.055 0.139 0.065 0.322 0.057 0.649 0.087 0.976 0.090 1.545 0.044 3.060-0.45 4.295-1.402s2.12-2.305 2.508-3.838z"></path>
<path fill="#73943d" d="M42.577 21.63c-0.586-1.29-2.011-2.17-4.158-2.6-2.086-0.419-4.209-0.61-6.335-0.57-0.014-0-0.028 0.005-0.038 0.014s-0.018 0.022-0.020 0.036c-0.010 0.013-0.016 0.028-0.016 0.045s0.006 0.032 0.016 0.045c1.191 0.61 5.759 3.23 5.183 8.77-0.006 0.055-0 0.111 0.018 0.164s0.047 0.101 0.086 0.14 0.085 0.069 0.136 0.088c0.051 0.018 0.106 0.025 0.16 0.018 1.123-0.17 4.021-0.81 4.88-2.81 0.259-0.514 0.402-1.081 0.417-1.66s-0.097-1.153-0.329-1.68z"></path>
<path fill="#fff" d="M11.8 1.56c-0.456-0.096-0.92-0.146-1.386-0.15-1.065 0.010-2.113 0.27-3.065 0.759s-1.782 1.195-2.426 2.064c-0.644 0.869-1.086 1.877-1.292 2.948s-0.169 2.175 0.107 3.229c0.389 1.538 1.278 2.895 2.519 3.847s2.763 1.443 4.313 1.393c0.327-0.008 0.653-0.038 0.976-0.090 0.051-0.010 0.098-0.032 0.139-0.065s0.072-0.076 0.092-0.124c0.020-0.049 0.029-0.101 0.024-0.154s-0.022-0.103-0.050-0.147c-1.271-1.91-1.951-4.168-1.952-6.48-0.006-2.413 0.721-4.768 2.079-6.74 0.024-0.032 0.037-0.070 0.037-0.11s-0.013-0.079-0.037-0.11c-0.020-0.030-0.047-0.054-0.078-0.070z"></path>
<path fill="#73943d" d="M4.529 19c-2.147 0.43-3.572 1.31-4.158 2.6-0.255 0.529-0.387 1.11-0.387 1.7s0.133 1.171 0.387 1.7c0.898 2 3.797 2.64 4.88 2.81 0.054 0.006 0.109 0 0.16-0.018s0.098-0.048 0.137-0.088c0.038-0.039 0.068-0.087 0.086-0.14s0.024-0.109 0.018-0.164c-0.576-5.54 3.992-8.16 5.183-8.76 0.010-0.015 0.015-0.032 0.015-0.050s-0.005-0.035-0.015-0.050c-0.002-0.014-0.010-0.027-0.020-0.036s-0.024-0.014-0.038-0.014c-2.094-0.053-4.188 0.118-6.247 0.51z"></path>
</svg>
