<!-- Generated by IcoMoon.io -->
<svg version="1.1" xmlns="http://www.w3.org/2000/svg" width="34" height="32" viewBox="0 0 34 32">
<title>star</title>
<path fill="#73943d" d="M18.889 1.036l3.829 7.579c0.139 0.268 0.342 0.499 0.591 0.674s0.539 0.287 0.843 0.328l8.585 1.229c0.505 0.067 0.962 0.327 1.271 0.724 0.278 0.36 0.411 0.808 0.374 1.258s-0.24 0.871-0.572 1.184l-6.216 5.895c-0.223 0.204-0.391 0.46-0.489 0.743s-0.121 0.587-0.069 0.882l1.537 8.32c0.079 0.49-0.042 0.991-0.338 1.393s-0.742 0.673-1.241 0.754c-0.426 0.060-0.861-0.020-1.236-0.227l-7.667-3.916c-0.28-0.137-0.589-0.209-0.901-0.209s-0.622 0.071-0.901 0.209l-7.658 3.916c-0.45 0.232-0.975 0.283-1.463 0.143s-0.902-0.46-1.155-0.893c-0.189-0.363-0.258-0.775-0.197-1.179l1.528-8.32c0.055-0.294 0.034-0.598-0.062-0.882s-0.264-0.54-0.487-0.743l-6.224-5.895c-0.353-0.338-0.556-0.8-0.564-1.284s0.179-0.952 0.521-1.301h0.043c0.298-0.327 0.707-0.537 1.15-0.589l8.585-1.229c0.305-0.044 0.595-0.159 0.846-0.334s0.455-0.408 0.597-0.676l3.683-7.579c0.163-0.313 0.413-0.575 0.722-0.754s0.663-0.268 1.021-0.257h0.232c0.316 0.036 0.618 0.151 0.878 0.332s0.468 0.423 0.608 0.704z"></path>
<path fill="#fff" d="M17.169 27.646c-0.331 0.015-0.654 0.105-0.944 0.261l-7.641 3.899c-0.45 0.213-0.965 0.251-1.442 0.107s-0.882-0.459-1.133-0.882c-0.196-0.358-0.268-0.769-0.206-1.171l1.528-8.295c0.051-0.297 0.028-0.602-0.068-0.888s-0.261-0.545-0.482-0.754l-6.224-5.895c-0.351-0.346-0.548-0.813-0.548-1.301s0.197-0.955 0.548-1.301c0.292-0.289 0.672-0.478 1.082-0.539l8.585-1.238c0.306-0.038 0.597-0.151 0.847-0.327s0.452-0.411 0.586-0.683l3.795-7.688c0.169-0.298 0.419-0.545 0.722-0.713s0.647-0.25 0.995-0.238c0 0.505 0 27.309 0 27.646z"></path>
</svg>
