<!-- Generated by IcoMoon.io -->
<svg version="1.1" xmlns="http://www.w3.org/2000/svg" width="28" height="32" viewBox="0 0 28 32">
<title>case</title>
<path fill="#73943d" d="M20.906 10.976c-0.148 0.001-0.294-0.027-0.431-0.083s-0.261-0.138-0.365-0.243c-0.104-0.104-0.187-0.228-0.243-0.364s-0.084-0.282-0.083-0.43v-2.048c-0.003-0.779-0.169-1.548-0.487-2.259s-0.781-1.348-1.36-1.871c-0.579-0.522-1.261-0.919-2.002-1.164s-1.525-0.333-2.302-0.258c-2.694 0.256-5.052 2.992-5.052 5.84v1.44c0 0.297-0.118 0.582-0.329 0.792s-0.496 0.328-0.794 0.328c-0.298 0-0.583-0.118-0.794-0.328s-0.329-0.495-0.329-0.792v-1.44c0-4 3.208-7.696 7.073-8.064 1.088-0.106 2.186 0.016 3.224 0.359s1.993 0.898 2.803 1.63c0.81 0.732 1.458 1.625 1.902 2.622s0.674 2.075 0.675 3.166v2.048c0.001 0.146-0.027 0.291-0.082 0.426s-0.136 0.258-0.239 0.362-0.225 0.187-0.36 0.244c-0.135 0.057-0.28 0.087-0.426 0.088z"></path>
<path fill="#fff" d="M26.953 11.144c-1.347-1.496-3.561-2.216-6.8-2.216h-11.932c-3.208 0-5.453 0.72-6.8 2.216-1.556 1.728-1.508 4.056-1.331 5.656l1.123 8.92c0.337 3.080 1.604 6.28 8.5 6.28h8.949c6.896 0 8.163-3.2 8.5-6.304l1.123-8.896c0.176-1.6 0.209-3.888-1.331-5.6v-0.056zM8.445 17.84c-0.317 0-0.627-0.094-0.891-0.27s-0.469-0.426-0.591-0.718-0.153-0.614-0.091-0.924c0.062-0.31 0.215-0.595 0.439-0.819s0.51-0.376 0.821-0.438c0.311-0.062 0.634-0.030 0.927 0.091s0.544 0.326 0.72 0.589 0.27 0.572 0.27 0.889c0 0.424-0.169 0.831-0.47 1.131s-0.709 0.469-1.134 0.469zM19.671 17.84c-0.317 0-0.627-0.094-0.891-0.27s-0.469-0.426-0.591-0.718-0.153-0.614-0.091-0.924c0.062-0.31 0.215-0.595 0.439-0.819s0.51-0.376 0.821-0.438c0.311-0.062 0.634-0.030 0.927 0.091s0.544 0.326 0.72 0.589 0.27 0.572 0.27 0.889c0 0.211-0.042 0.421-0.124 0.616s-0.201 0.372-0.352 0.521c-0.151 0.149-0.329 0.266-0.526 0.346s-0.407 0.119-0.619 0.117h0.016z"></path>
</svg>
