<svg width="40" height="38" viewBox="0 0 40 38" fill="none" xmlns="http://www.w3.org/2000/svg">
<g id="Artboard 9 " clip-path="url(#clip0_1_318)">
<path id="Vector" fill-rule="evenodd" clip-rule="evenodd" d="M22.0014 1.22989L26.4614 10.2299C26.6229 10.5484 26.8591 10.8231 27.15 11.0303C27.4408 11.2376 27.7776 11.3712 28.1314 11.4199L38.1314 12.8799C38.7191 12.9593 39.2513 13.2686 39.6114 13.7399C39.9347 14.1676 40.0898 14.6991 40.0474 15.2336C40.005 15.7681 39.768 16.2685 39.3814 16.6399L32.1414 23.6399C31.8812 23.8823 31.6855 24.1856 31.5721 24.5226C31.4586 24.8596 31.4308 25.2195 31.4914 25.5699L33.2814 35.4499C33.3737 36.0318 33.2321 36.6266 32.8873 37.1044C32.5425 37.5822 32.0227 37.9041 31.4414 37.9999C30.9447 38.0715 30.4383 37.9766 30.0014 37.7299L21.0714 33.0799C20.7453 32.917 20.3858 32.8323 20.0214 32.8323C19.6569 32.8323 19.2974 32.917 18.9714 33.0799L10.0514 37.7299C9.52658 38.0049 8.91565 38.0658 8.3469 37.8999C7.77816 37.7339 7.29587 37.354 7.00136 36.8399C6.78165 36.4083 6.70129 35.9191 6.77136 35.4399L8.55136 25.5599C8.61589 25.2103 8.59106 24.8501 8.47917 24.5127C8.36729 24.1753 8.17197 23.8716 7.91136 23.6299L0.661355 16.6299C0.249764 16.2282 0.0135608 15.6802 0.00419568 15.1052C-0.00516947 14.5302 0.213063 13.9747 0.611355 13.5599H0.661355C1.00798 13.1713 1.4844 12.9224 2.00136 12.8599L12.0014 11.3999C12.3566 11.3477 12.6942 11.2116 12.9864 11.0029C13.2785 10.7943 13.5168 10.519 13.6814 10.1999L17.9714 1.19989C18.161 0.827833 18.4525 0.517422 18.812 0.304927C19.1715 0.0924324 19.584 -0.0133682 20.0014 -0.000111478H20.2714C20.6398 0.0432379 20.9914 0.178631 21.2937 0.393587C21.596 0.608543 21.8394 0.896147 22.0014 1.22989Z" fill="#73943D"/>
<path id="Vector_2" fill-rule="evenodd" clip-rule="evenodd" d="M19.9996 32.8299C19.6141 32.848 19.2378 32.954 18.8996 33.1399L9.9996 37.7699C9.47558 38.0224 8.87556 38.068 8.31942 37.8974C7.76327 37.7269 7.29195 37.3528 6.9996 36.8499C6.77131 36.4247 6.68709 35.937 6.7596 35.4599L8.5396 25.6099C8.59944 25.2573 8.57244 24.8955 8.46092 24.5557C8.3494 24.2159 8.15673 23.9084 7.8996 23.6599L0.649599 16.6599C0.24107 16.2495 0.0117188 15.694 0.0117188 15.1149C0.0117187 14.5358 0.24107 13.9803 0.649599 13.5699C0.989963 13.2268 1.43176 13.0024 1.9096 12.9299L11.9096 11.4599C12.2658 11.4144 12.605 11.2809 12.8966 11.0714C13.1882 10.8619 13.4229 10.5829 13.5796 10.2599L17.9996 1.12988C18.1965 0.775557 18.4875 0.482522 18.8404 0.283119C19.1933 0.0837157 19.5945 -0.0143022 19.9996 -0.000117093C19.9996 0.599883 19.9996 32.4299 19.9996 32.8299Z" fill="white"/>
</g>
<defs>
<clipPath id="clip0_1_318">
<rect width="40" height="38" fill="white"/>
</clipPath>
</defs>
</svg>
