<svg width="59" height="72" viewBox="0 0 59 72" fill="none" xmlns="http://www.w3.org/2000/svg">
<g id="Artboard 15 " clip-path="url(#clip0_1_122)">
<path id="Vector" fill-rule="evenodd" clip-rule="evenodd" d="M11.7339 20.3243C5.3688 20.3243 0 21.3574 0 25.3788C0 29.4002 5.4057 30.3964 11.7339 30.3964C18.062 30.3964 23.4677 29.3633 23.4677 25.3419C23.4677 21.3205 18.062 20.3243 11.7339 20.3243Z" fill="#B01117"/>
<path id="Vector_2" fill-rule="evenodd" clip-rule="evenodd" d="M11.7323 16.5059C12.757 16.5059 13.7715 16.3032 14.7175 15.9094C15.6635 15.5157 16.5222 14.9387 17.2442 14.2117C17.9662 13.4846 18.5372 12.622 18.9242 11.6733C19.3113 10.7247 19.5068 9.70888 19.4995 8.68436C19.4995 6.62465 18.6812 4.6493 17.2245 3.19287C15.7679 1.73643 13.7923 0.918213 11.7323 0.918213C9.67228 0.918213 7.69665 1.73643 6.24001 3.19287C4.78337 4.6493 3.96504 6.62465 3.96504 8.68436C3.95774 9.70888 4.15325 10.7247 4.54032 11.6733C4.92739 12.622 5.49837 13.4846 6.22035 14.2117C6.94233 14.9387 7.80105 15.5157 8.74704 15.9094C9.69303 16.3032 10.7076 16.5059 11.7323 16.5059Z" fill="#B01117"/>
<path id="Vector_3" fill-rule="evenodd" clip-rule="evenodd" d="M46.6401 20.3243C40.2751 20.3243 34.9062 21.3574 34.9062 25.3788C34.9062 29.4002 40.312 30.3964 46.6401 30.3964C52.9683 30.3964 58.374 29.3633 58.374 25.3419C58.374 21.3205 52.9683 20.3243 46.6401 20.3243Z" fill="#DAACAE"/>
<path id="Vector_4" fill-rule="evenodd" clip-rule="evenodd" d="M46.6385 16.5059C47.6625 16.5034 48.676 16.2991 49.6209 15.9045C50.5657 15.5099 51.4235 14.9328 52.145 14.2062C52.8665 13.4797 53.4376 12.618 53.8255 11.6705C54.2134 10.7229 54.4106 9.7082 54.4058 8.68436C54.4058 6.62465 53.5874 4.6493 52.1308 3.19287C50.6742 1.73643 48.6985 0.918213 46.6385 0.918213C44.5785 0.918213 42.6029 1.73643 41.1463 3.19287C39.6896 4.6493 38.8713 6.62465 38.8713 8.68436C38.864 9.70888 39.0595 10.7247 39.4466 11.6733C39.8336 12.622 40.4046 13.4846 41.1266 14.2117C41.8486 14.9387 42.7073 15.5157 43.6533 15.9094C44.5993 16.3032 45.6138 16.5059 46.6385 16.5059Z" fill="#B01117"/>
<path id="Vector_5" fill-rule="evenodd" clip-rule="evenodd" d="M11.7339 61.1289C5.3688 61.1289 0 62.1619 0 66.1834C0 70.2048 5.4057 71.2009 11.7339 71.2009C18.062 71.2009 23.4677 70.1494 23.4677 66.1465C23.4677 62.1435 18.062 61.1289 11.7339 61.1289Z" fill="#B01117"/>
<path id="Vector_6" fill-rule="evenodd" clip-rule="evenodd" d="M11.7323 57.3104C13.2817 57.3214 14.7996 56.872 16.0932 56.0192C17.3869 55.1665 18.3982 53.9488 18.9987 52.5206C19.5993 51.0924 19.7621 49.5181 19.4666 47.9972C19.171 46.4764 18.4304 45.0775 17.3386 43.9781C16.2469 42.8787 14.8531 42.1283 13.3342 41.822C11.8153 41.5157 10.2396 41.6673 8.80697 42.2576C7.37436 42.848 6.14935 43.8504 5.28733 45.1378C4.4253 46.4252 3.96508 47.9396 3.96504 49.4889C3.95774 50.5134 4.15325 51.5292 4.54032 52.4779C4.92739 53.4265 5.49837 54.2892 6.22035 55.0162C6.94233 55.7432 7.80105 56.3202 8.74704 56.714C9.69303 57.1077 10.7076 57.3104 11.7323 57.3104Z" fill="#B01117"/>
<path id="Vector_7" fill-rule="evenodd" clip-rule="evenodd" d="M46.6401 61.1289C40.2751 61.1289 34.9062 62.1619 34.9062 66.1834C34.9062 70.2048 40.312 71.2009 46.6401 71.2009C52.9683 71.2009 58.374 70.1494 58.374 66.1465C58.374 62.1435 52.9683 61.1289 46.6401 61.1289Z" fill="#B01117"/>
<path id="Vector_8" fill-rule="evenodd" clip-rule="evenodd" d="M46.6384 57.3104C48.1879 57.3214 49.7057 56.872 50.9994 56.0192C52.2931 55.1665 53.3043 53.9488 53.9049 52.5206C54.5055 51.0924 54.6683 49.5181 54.3727 47.9972C54.0772 46.4764 53.3365 45.0775 52.2448 43.9781C51.153 42.8787 49.7593 42.1283 48.2403 41.822C46.7214 41.5157 45.1457 41.6673 43.7131 42.2576C42.2805 42.848 41.0555 43.8504 40.1935 45.1378C39.3314 46.4252 38.8712 47.9396 38.8712 49.4889C38.8663 50.5127 39.0635 51.5275 39.4515 52.475C39.8394 53.4225 40.4105 54.2842 41.132 55.0108C41.8535 55.7373 42.7112 56.3144 43.6561 56.709C44.601 57.1036 45.6144 57.308 46.6384 57.3104Z" fill="#B01117"/>
</g>
<defs>
<clipPath id="clip0_1_122">
<rect width="58.3742" height="70.3196" fill="white" transform="translate(0 0.881348)"/>
</clipPath>
</defs>
</svg>
