<svg width="81" height="60" viewBox="0 0 81 60" fill="none" xmlns="http://www.w3.org/2000/svg">
<g id="Artboard 3 " clip-path="url(#clip0_1_149)">
<path id="Vector" fill-rule="evenodd" clip-rule="evenodd" d="M40.3148 39.525C27.6125 39.525 16.8984 41.6438 16.8984 49.8C16.8984 57.9563 27.6125 60 40.3148 60C53.0171 60 63.7312 57.8813 63.7312 49.725C63.7312 41.5688 52.9434 39.525 40.3148 39.525Z" fill="#B01117"/>
<path id="Vector_2" fill-rule="evenodd" clip-rule="evenodd" d="M40.3171 31.7438C42.3596 31.7463 44.3823 31.3371 46.2689 30.5399C48.1554 29.7427 49.8684 28.5732 51.3092 27.0987C52.75 25.6243 53.8901 23.874 54.6639 21.9488C55.4376 20.0236 55.8297 17.9615 55.8176 15.8813C55.8176 11.6941 54.1845 7.67853 51.2776 4.7178C48.3707 1.75707 44.4281 0.09375 40.3171 0.09375C36.2062 0.09375 32.2636 1.75707 29.3567 4.7178C26.4498 7.67853 24.8167 11.6941 24.8167 15.8813C24.8045 17.9615 25.1966 20.0236 25.9704 21.9488C26.7442 23.874 27.8843 25.6243 29.3251 27.0987C30.7659 28.5732 32.4789 29.7427 34.3654 30.5399C36.2519 31.3371 38.2747 31.7463 40.3171 31.7438Z" fill="#DAACAE"/>
<path id="Vector_3" fill-rule="evenodd" clip-rule="evenodd" d="M73.9668 19.5749C74.4832 17.5976 74.549 15.5261 74.1591 13.5189C73.7692 11.5116 72.934 9.62174 71.7173 7.99355C70.5006 6.36537 68.9346 5.04199 67.1389 4.12453C65.3433 3.20707 63.3655 2.7198 61.3566 2.69995C60.4784 2.70707 59.6029 2.80126 58.7425 2.9812C58.6825 2.98689 58.6246 3.0068 58.5734 3.03936C58.5223 3.07192 58.4793 3.11621 58.448 3.1687C58.4032 3.22778 58.3789 3.30031 58.3789 3.37495C58.3789 3.44959 58.4032 3.52212 58.448 3.5812C60.9556 7.17911 62.3407 11.4631 62.4228 15.8745C62.5049 20.286 61.2802 24.6203 58.9082 28.3124C58.855 28.3952 58.8227 28.4901 58.8143 28.5887C58.8058 28.6873 58.8214 28.7865 58.8596 28.8774C58.8979 28.9683 58.9577 29.0482 59.0336 29.11C59.1095 29.1717 59.1992 29.2133 59.2948 29.2312C59.9029 29.3385 60.5186 29.395 61.1357 29.3999C64.0503 29.4823 66.9062 28.5555 69.2368 26.771C71.5674 24.9864 73.2349 22.4496 73.9668 19.5749Z" fill="#DAACAE"/>
<path id="Vector_4" fill-rule="evenodd" clip-rule="evenodd" d="M80.3015 40.5562C79.1969 38.1375 76.5092 36.4875 72.4592 35.6812C68.525 34.8959 64.5201 34.5377 60.5117 34.6125C60.4853 34.6121 60.4597 34.6214 60.4395 34.6385C60.4192 34.6557 60.4056 34.6798 60.4013 34.7062C60.3818 34.7299 60.3711 34.7597 60.3711 34.7906C60.3711 34.8215 60.3818 34.8513 60.4013 34.875C62.6472 36.0187 71.2626 40.9312 70.1765 51.3187C70.1647 51.4226 70.1761 51.5278 70.2099 51.6265C70.2437 51.7253 70.2989 51.8149 70.3715 51.8889C70.4441 51.9628 70.5321 52.0191 70.629 52.0534C70.726 52.0878 70.8293 52.0995 70.9313 52.0875C73.0483 51.7687 78.5158 50.5687 80.1358 46.8187C80.6248 45.855 80.8937 44.7912 80.9224 43.7068C80.9511 42.6224 80.7389 41.5454 80.3015 40.5562Z" fill="#B01117"/>
<path id="Vector_5" fill-rule="evenodd" clip-rule="evenodd" d="M22.2559 2.92505C21.3955 2.74511 20.52 2.65091 19.6418 2.6438C17.6332 2.66281 15.6556 3.14975 13.8604 4.06733C12.0652 4.98491 10.4999 6.30879 9.28458 7.93757C8.06921 9.56636 7.23595 11.4568 6.84861 13.4642C6.46128 15.4716 6.53015 17.5427 7.04994 19.5188C7.78398 22.4031 9.45972 24.9471 11.8017 26.7327C14.1436 28.5183 17.0124 29.4391 19.9363 29.3438C20.5529 29.3289 21.1679 29.2726 21.7772 29.1751C21.8728 29.1572 21.9625 29.1155 22.0384 29.0538C22.1144 28.9921 22.1741 28.9122 22.2124 28.8213C22.2506 28.7303 22.2662 28.6311 22.2578 28.5326C22.2493 28.434 22.217 28.3391 22.1638 28.2563C19.7674 24.6743 18.4845 20.4408 18.482 16.1063C18.4713 11.5817 19.8415 7.16547 22.4031 3.4688C22.4479 3.40972 22.4722 3.33719 22.4722 3.26255C22.4722 3.18791 22.4479 3.11538 22.4031 3.0563C22.3659 3.00041 22.3152 2.95521 22.2559 2.92505Z" fill="#DAACAE"/>
<path id="Vector_6" fill-rule="evenodd" clip-rule="evenodd" d="M8.5415 35.625C4.4915 36.4312 1.80378 38.0812 0.69923 40.5C0.218701 41.4913 -0.03125 42.582 -0.03125 43.6875C-0.03125 44.793 0.218701 45.8837 0.69923 46.875C2.39287 50.625 7.86037 51.825 9.90378 52.1437C10.0057 52.1557 10.1091 52.1441 10.206 52.1097C10.3029 52.0753 10.391 52.019 10.4635 51.9451C10.5361 51.8712 10.5914 51.7815 10.6251 51.6828C10.6589 51.5841 10.6703 51.4788 10.6585 51.375C9.57241 40.9875 18.1879 36.075 20.4338 34.95C20.452 34.9222 20.4617 34.8896 20.4617 34.8562C20.4617 34.8229 20.452 34.7902 20.4338 34.7625C20.4294 34.736 20.4158 34.712 20.3956 34.6948C20.3753 34.6776 20.3497 34.6684 20.3233 34.6687C16.3741 34.5687 12.4254 34.8892 8.5415 35.625Z" fill="#B01117"/>
</g>
<defs>
<clipPath id="clip0_1_149">
<rect width="81" height="60" fill="white"/>
</clipPath>
</defs>
</svg>
