<svg width="60" height="72" viewBox="0 0 60 72" fill="none" xmlns="http://www.w3.org/2000/svg">
<g id="Artboard 17 " clip-path="url(#clip0_1_133)">
<path id="Vector" fill-rule="evenodd" clip-rule="evenodd" d="M38.0729 51.4763H19.3288C18.6424 51.4671 17.9873 51.1852 17.5052 50.6916C17.0232 50.1981 16.7529 49.5327 16.753 48.8393C16.753 48.1493 17.0243 47.4875 17.5074 46.9996C17.9905 46.5116 18.6456 46.2375 19.3288 46.2375H38.0729C38.7577 46.2375 39.4147 46.5111 39.9005 46.9985C40.3863 47.4859 40.6616 48.1477 40.6661 48.8393C40.6662 49.5357 40.3935 50.2038 39.9077 50.6978C39.4219 51.1918 38.7623 51.4717 38.0729 51.4763ZM19.3288 28.6224H30.9721C31.6584 28.6409 32.3099 28.9316 32.7855 29.4318C33.2611 29.9319 33.5225 30.6012 33.5131 31.2946C33.5085 31.9862 33.2332 32.648 32.7474 33.1354C32.2616 33.6229 31.6046 33.8964 30.9199 33.8964H19.3288C18.6456 33.8964 17.9905 33.6223 17.5074 33.1344C17.0243 32.6464 16.753 31.9846 16.753 31.2946C16.7529 30.6013 17.0232 29.9358 17.5052 29.4423C17.9873 28.9487 18.6424 28.6668 19.3288 28.6576V28.6224ZM58.0702 25.4932H53.754H47.4363C44.377 25.4517 41.4563 24.1973 39.3042 22.0004C37.1522 19.8036 35.9411 16.8404 35.9322 13.7498V2.4987C35.9325 2.07873 35.771 1.67515 35.4819 1.37331C35.1928 1.07147 34.7988 0.895042 34.3833 0.881348L15.9872 0.881348C11.8541 0.91382 7.90118 2.59509 4.98997 5.55876C2.07877 8.52244 0.445225 12.5283 0.44535 16.7033V54.6407C0.436076 59.0143 2.14367 63.2133 5.19393 66.3175C8.24419 69.4216 12.3883 71.1777 16.7182 71.201H44.147C46.1924 71.1918 48.2159 70.7749 50.1014 69.9741C51.987 69.1733 53.6975 68.0045 55.1349 66.5346C56.5723 65.0647 57.7084 63.3226 58.4779 61.4083C59.2474 59.494 59.6352 57.4451 59.6192 55.3791V27.1457C59.631 26.933 59.5997 26.72 59.5272 26.52C59.4547 26.3199 59.3425 26.1368 59.1975 25.9821C59.0524 25.8274 58.8776 25.7042 58.6838 25.6201C58.49 25.5361 58.2812 25.4929 58.0702 25.4932Z" fill="#B01117"/>
<path id="Vector_2" fill-rule="evenodd" clip-rule="evenodd" d="M49.4034 18.9359C51.8051 18.9359 55.1467 18.9359 57.9662 18.9359C58.2746 18.9021 58.5684 18.7856 58.8173 18.5986C59.0662 18.4116 59.261 18.1608 59.3817 17.8721C59.5024 17.5835 59.5445 17.2675 59.5037 16.9569C59.4629 16.6463 59.3407 16.3524 59.1497 16.1055L45.2264 1.37355C44.9773 1.18333 44.6821 1.06433 44.3718 1.029C44.0615 0.99368 43.7475 1.04334 43.4627 1.17279C43.1779 1.30223 42.9329 1.50668 42.7532 1.76471C42.5736 2.02273 42.466 2.32482 42.4418 2.6393V11.8336C42.4326 12.7629 42.6058 13.6849 42.9516 14.5462C43.2973 15.4075 43.8086 16.191 44.456 16.8515C45.1034 17.5119 45.8739 18.0362 46.7231 18.394C47.5723 18.7517 48.4833 18.9359 49.4034 18.9359Z" fill="#DAACAE"/>
</g>
<defs>
<clipPath id="clip0_1_133">
<rect width="59.1738" height="70.3196" fill="white" transform="translate(0.445312 0.881348)"/>
</clipPath>
</defs>
</svg>
