<svg width="79" height="72" viewBox="0 0 79 72" fill="none" xmlns="http://www.w3.org/2000/svg">
<g id="Artboard 16 " clip-path="url(#clip0_1_138)">
<path id="Vector" fill-rule="evenodd" clip-rule="evenodd" d="M14.7407 37.6922V18.0536H7.37036C5.41562 18.0536 3.54094 18.8292 2.15873 20.2099C0.776518 21.5906 -5.15183e-09 23.4632 -5.15183e-09 25.4158V69.5889C-0.000493568 70.0444 0.127203 70.4908 0.368518 70.8773C0.617566 71.2647 0.968043 71.5766 1.38194 71.7791C1.77177 71.9645 2.20647 72.0347 2.6349 71.9816C3.06581 71.941 3.47863 71.7887 3.83259 71.5399L16.5833 62.2267H49.5104C50.437 62.2613 51.3604 62.0982 52.219 61.7482C53.0836 61.4068 53.8694 60.8929 54.5284 60.2378C55.1874 59.5827 55.7057 58.8002 56.0516 57.9382C56.3785 57.0681 56.5348 56.1433 56.5122 55.2142V52.4166H29.4814C25.572 52.4166 21.8226 50.8653 19.0582 48.1039C16.2938 45.3426 14.7407 41.5974 14.7407 37.6922Z" fill="#DAACAE"/>
<path id="Vector_2" fill-rule="evenodd" clip-rule="evenodd" d="M71.2551 0.881348H29.4836C27.5289 0.881348 25.6542 1.657 24.272 3.03768C22.8898 4.41836 22.1133 6.29096 22.1133 8.24353V37.6923C22.1133 39.6449 22.8898 41.5175 24.272 42.8981C25.6542 44.2788 27.5289 45.0545 29.4836 45.0545H62.7792L74.5165 54.2572C74.869 54.5118 75.2818 54.6704 75.7142 54.7173C76.1427 54.7704 76.5774 54.7002 76.9672 54.5149C77.3942 54.3249 77.7538 54.0105 77.999 53.613C78.24 53.2196 78.3676 52.7674 78.3675 52.3062V8.24353C78.3687 6.3348 77.6277 4.50021 76.3008 3.12671C74.9739 1.7532 73.1648 0.948153 71.2551 0.881348Z" fill="#B01117"/>
</g>
<defs>
<clipPath id="clip0_1_138">
<rect width="78.3653" height="71.1187" fill="white" transform="translate(0 0.881348)"/>
</clipPath>
</defs>
</svg>
