<svg width="65" height="74" viewBox="0 0 65 74" fill="none" xmlns="http://www.w3.org/2000/svg">
<g id="Artboard 5 " clip-path="url(#clip0_1_144)">
<path id="Vector" fill-rule="evenodd" clip-rule="evenodd" d="M47.7387 25.2917C47.4013 25.2942 47.0668 25.2293 46.7547 25.1009C46.4425 24.9725 46.159 24.7831 45.9204 24.5437C45.6818 24.3044 45.4931 24.0198 45.3651 23.7066C45.2371 23.3934 45.1725 23.0578 45.1749 22.7193V18.0155C45.1678 16.2269 44.789 14.4595 44.0628 12.8261C43.3365 11.1927 42.2787 9.72927 40.9569 8.52925C39.6351 7.32922 38.0784 6.41899 36.3862 5.8567C34.694 5.29441 32.9036 5.09242 31.1292 5.26362C24.9762 5.8516 19.5923 12.1357 19.5923 18.6769V21.9843C19.5923 22.6666 19.3222 23.3209 18.8414 23.8033C18.3606 24.2857 17.7085 24.5567 17.0286 24.5567C16.3486 24.5567 15.6965 24.2857 15.2157 23.8033C14.735 23.3209 14.4648 22.6666 14.4648 21.9843V18.6769C14.4648 9.48974 21.7898 1.00076 30.6165 0.155541C33.1012 -0.0877848 35.6091 0.192804 37.9794 0.979299C40.3497 1.76579 42.5299 3.04082 44.3801 4.72256C46.2303 6.40429 47.7097 8.45558 48.7233 10.7448C49.7369 13.034 50.2623 15.5105 50.2658 18.0155V22.7193C50.2682 23.0547 50.2048 23.3873 50.0791 23.6981C49.9534 24.0089 49.7679 24.2918 49.5332 24.5307C49.2986 24.7696 49.0193 24.9597 48.7114 25.0903C48.4035 25.2209 48.073 25.2893 47.7387 25.2917Z" fill="#DAACAE"/>
<path id="Vector_2" fill-rule="evenodd" clip-rule="evenodd" d="M61.5507 25.6776C58.4742 22.2416 53.4199 20.5879 46.0216 20.5879H18.7726C11.4476 20.5879 6.32012 22.2416 3.24362 25.6776C-0.309009 29.6465 -0.199134 34.9934 0.203741 38.6683L2.76749 59.1374C3.53662 66.3034 6.42999 73.6532 22.1788 73.6532H42.6155C58.3643 73.6532 61.2576 66.3034 62.0268 59.1741L64.5905 38.6683C64.9934 34.9934 65.0667 29.7383 61.5507 25.8062V25.6776ZM19.2854 41.0753C18.561 41.0753 17.8529 40.8598 17.2506 40.456C16.6483 40.0522 16.1789 39.4783 15.9017 38.8068C15.6245 38.1353 15.5519 37.3964 15.6932 36.6835C15.8346 35.9707 16.1834 35.3159 16.6956 34.8019C17.2078 34.288 17.8604 33.938 18.5709 33.7962C19.2813 33.6544 20.0177 33.7272 20.687 34.0053C21.3562 34.2835 21.9282 34.7545 22.3306 35.3588C22.7331 35.9631 22.9479 36.6736 22.9479 37.4005C22.9479 38.3751 22.562 39.3098 21.8752 39.999C21.1883 40.6882 20.2567 41.0753 19.2854 41.0753ZM44.9229 41.0753C44.1985 41.0753 43.4904 40.8598 42.8881 40.456C42.2858 40.0522 41.8164 39.4783 41.5392 38.8068C41.262 38.1353 41.1894 37.3964 41.3308 36.6835C41.4721 35.9707 41.8209 35.3159 42.3331 34.8019C42.8453 34.288 43.4979 33.938 44.2084 33.7962C44.9188 33.6544 45.6552 33.7272 46.3245 34.0053C46.9937 34.2835 47.5657 34.7545 47.9682 35.3588C48.3706 35.9631 48.5854 36.6736 48.5854 37.4005C48.5854 37.8862 48.4895 38.3671 48.3031 38.8153C48.1168 39.2636 47.8437 39.6704 47.4998 40.0121C47.1558 40.3538 46.7477 40.6237 46.2991 40.8062C45.8505 40.9887 45.3703 41.0802 44.8863 41.0753H44.9229Z" fill="#B01117"/>
</g>
<defs>
<clipPath id="clip0_1_144">
<rect width="64.7714" height="73.516" fill="white" transform="translate(0 0.0820312)"/>
</clipPath>
</defs>
</svg>
