<svg width="115" height="126" viewBox="0 0 115 126" fill="none" xmlns="http://www.w3.org/2000/svg">
<g id="Growth icon" clip-path="url(#clip0_1_272)">
<path id="Vector" fill-rule="evenodd" clip-rule="evenodd" d="M22.9513 78.7458C19.6348 78.7723 16.4621 80.1097 14.12 82.4685C11.778 84.8273 10.455 88.0178 10.4375 91.3491V120.791C10.4384 121.472 10.5749 122.146 10.839 122.774C11.0941 123.419 11.4817 124.003 11.9766 124.488C12.4684 124.973 13.0474 125.361 13.6831 125.63C14.3143 125.869 14.9826 125.995 15.6572 126H36.6028C37.9782 126 39.2974 125.451 40.27 124.474C41.2426 123.497 41.789 122.172 41.789 120.791V91.3491C41.7627 88.0147 40.4324 84.8243 38.085 82.4664C35.7375 80.1085 32.5613 78.7721 29.2417 78.7458H22.9513Z" fill="#4C4A46"/>
<path id="Vector_2" fill-rule="evenodd" clip-rule="evenodd" d="M59.5902 60.8994C56.2706 60.9258 53.0944 62.2621 50.747 64.62C48.3996 66.9779 47.0692 70.1683 47.043 73.5028V120.791C47.0592 122.177 47.6111 123.502 48.5821 124.488C49.5622 125.46 50.8852 126.003 52.2626 126H73.1748C73.8833 125.998 74.5839 125.85 75.2339 125.567C75.8839 125.284 76.4697 124.871 76.9557 124.353C77.9267 123.368 78.4786 122.042 78.4948 120.656V73.5028C78.4686 70.1683 77.1382 66.9779 74.7908 64.62C72.4434 62.2621 69.2672 60.9258 65.9475 60.8994H59.5902Z" fill="#4C4A46"/>
<path id="Vector_3" fill-rule="evenodd" clip-rule="evenodd" d="M96.1624 45.1704C92.8516 45.1968 89.6839 46.5295 87.3428 48.8811C85.0016 51.2327 83.6748 54.4146 83.6486 57.7402V120.791C83.6784 122.174 84.2282 123.495 85.1877 124.488C86.1678 125.46 87.4908 126.003 88.8682 126H109.747C110.433 125.997 111.112 125.872 111.754 125.63C112.386 125.353 112.963 124.966 113.461 124.488C113.945 123.994 114.331 123.412 114.599 122.773C114.863 122.146 114.999 121.472 115 120.791V57.7402C114.965 54.4058 113.626 51.2189 111.272 48.8673C108.919 46.5157 105.739 45.1879 102.419 45.1704H96.1624Z" fill="#4C4A46"/>
<path id="Vector_4" fill-rule="evenodd" clip-rule="evenodd" d="M91.2773 0C89.8958 0.00914772 88.5735 0.564584 87.5967 1.54601C87.1099 2.02967 86.7233 2.60538 86.4591 3.2399C86.1949 3.87443 86.0585 4.55522 86.0576 5.243C86.0585 5.93512 86.1949 6.62031 86.4591 7.25954C86.7031 7.89266 87.0796 8.46575 87.5633 8.93998C88.0432 9.4403 88.6254 9.83015 89.2697 10.0827C89.905 10.3515 90.5879 10.4887 91.2773 10.486H96.6642C67.1196 36.0288 36.1362 51.8922 4.24933 57.841C3.57668 57.955 2.93301 58.2011 2.3552 58.5653C1.77739 58.9295 1.27678 59.4046 0.882057 59.9635C0.48733 60.5223 0.206237 61.1539 0.0548766 61.822C-0.0964833 62.4901 -0.115136 63.1817 -1.35526e-05 63.857C0.112319 64.5335 0.35999 65.1801 0.728042 65.7578C1.09609 66.3354 1.57689 66.8321 2.14139 67.2179C3.27992 68.0177 4.68753 68.3319 6.05614 68.0918C40.3855 61.6724 73.4434 44.5655 104.46 17.6783V23.7951C104.45 24.4851 104.575 25.1704 104.828 25.8117C105.092 26.4526 105.478 27.035 105.966 27.5257C106.451 28.004 107.018 28.391 107.639 28.6684C108.275 28.9338 108.957 29.0709 109.646 29.0718C110.336 29.0745 111.019 28.9373 111.654 28.6684C112.296 28.4122 112.878 28.0229 113.36 27.5257C113.848 27.035 114.235 26.4526 114.498 25.8117C114.766 25.1735 114.902 24.4876 114.9 23.7951V8.33502C114.874 6.14401 114.001 4.04899 112.464 2.49334C110.928 0.937692 108.85 0.0434973 106.669 0L91.2773 0Z" fill="#73943D"/>
</g>
<defs>
<clipPath id="clip0_1_272">
<rect width="115" height="126" fill="white"/>
</clipPath>
</defs>
</svg>
