<svg width="112" height="111" viewBox="0 0 112 111" fill="none" xmlns="http://www.w3.org/2000/svg">
<g id="Sun icon" clip-path="url(#clip0_1_262)">
<path id="Vector" fill-rule="evenodd" clip-rule="evenodd" d="M55.9986 84.1352C61.7132 84.1352 67.2994 82.4558 72.0508 79.3093C76.8023 76.1628 80.5056 71.6906 82.6924 66.4582C84.8793 61.2258 85.4515 55.4682 84.3366 49.9136C83.2218 44.3589 80.47 39.2566 76.4292 35.2519C72.3884 31.2472 67.2401 28.5199 61.6354 27.415C56.0307 26.3101 50.2212 26.8772 44.9417 29.0445C39.6622 31.2119 35.1497 34.8821 31.9748 39.5912C28.8 44.3002 27.1055 49.8365 27.1055 55.5C27.1055 63.0945 30.1496 70.378 35.5681 75.7481C40.9866 81.1183 48.3357 84.1352 55.9986 84.1352Z" fill="#73943D"/>
<path id="Vector_2" fill-rule="evenodd" clip-rule="evenodd" d="M61.4173 5.36734C61.4173 3.94383 60.8468 2.57863 59.8311 1.57206C58.8155 0.565486 57.438 0 56.0016 0C54.5653 0 53.1878 0.565486 52.1722 1.57206C51.1565 2.57863 50.5859 3.94383 50.5859 5.36734V19.6709C54.177 19.1464 57.8263 19.1464 61.4173 19.6709V5.36734ZM61.4173 91.2448C57.8263 91.7693 54.177 91.7693 50.5859 91.2448V105.633C50.5859 107.056 51.1565 108.421 52.1722 109.428C53.1878 110.435 54.5653 111 56.0016 111C57.438 111 58.8155 110.435 59.8311 109.428C60.8468 108.421 61.4173 107.056 61.4173 105.633V91.2448Z" fill="#4C4A46"/>
<path id="Vector_3" fill-rule="evenodd" clip-rule="evenodd" d="M106.584 60.8674C108.021 60.8674 109.398 60.3019 110.414 59.2953C111.429 58.2887 112 56.9235 112 55.5C112 54.0765 111.429 52.7113 110.414 51.7047C109.398 50.6982 108.021 50.1327 106.584 50.1327H92.0668C92.5961 53.6917 92.5961 57.3084 92.0668 60.8674H106.584ZM19.8481 60.8674C19.3189 57.3084 19.3189 53.6917 19.8481 50.1327H5.4157C3.97936 50.1327 2.60186 50.6982 1.58622 51.7047C0.570581 52.7113 0 54.0765 0 55.5C0 56.9235 0.570581 58.2887 1.58622 59.2953C2.60186 60.3019 3.97936 60.8674 5.4157 60.8674H19.8481Z" fill="#4C4A46"/>
<path id="Vector_4" fill-rule="evenodd" clip-rule="evenodd" d="M95.6111 23.8579C96.1278 23.3587 96.5391 22.7627 96.8213 22.1045C97.1034 21.4463 97.2507 20.7391 97.2546 20.024C97.2585 19.3089 97.1189 18.6001 96.844 17.939C96.569 17.2778 96.1642 16.6774 95.653 16.1726C95.1419 15.6679 94.5346 15.2689 93.8664 14.9989C93.1983 14.7288 92.4827 14.5931 91.7611 14.5996C91.0396 14.6061 90.3266 14.7547 89.6635 15.0367C89.0004 15.3188 88.4005 15.7286 87.8987 16.2425L77.6628 26.4433C80.5776 28.5851 83.1573 31.1418 85.3185 34.0306L95.6111 23.8579ZM34.3372 84.5567C32.8756 83.4949 31.5008 82.3203 30.2258 81.044C28.9368 79.7735 27.7427 78.4116 26.6531 76.9693L16.3888 87.1139C15.8313 87.6014 15.3804 88.197 15.0641 88.8639C14.7477 89.5307 14.5725 90.2547 14.5493 90.9913C14.5261 91.7278 14.6554 92.4612 14.9291 93.1463C15.2029 93.8315 15.6154 94.4538 16.1412 94.9748C16.6669 95.4959 17.2948 95.9047 17.9861 96.176C18.6774 96.4473 19.4174 96.5755 20.1606 96.5525C20.9038 96.5295 21.6343 96.3558 22.3072 96.0423C22.98 95.7287 23.581 95.2819 24.0729 94.7293L34.3372 84.5567Z" fill="#4C4A46"/>
<path id="Vector_5" fill-rule="evenodd" clip-rule="evenodd" d="M24.0732 16.2425C23.0347 15.3343 21.6859 14.8526 20.3015 14.8955C18.9171 14.9383 17.6013 15.5025 16.6219 16.4731C15.6425 17.4438 15.0732 18.7479 15.03 20.1199C14.9868 21.4919 15.4728 22.8287 16.3892 23.858L26.6819 34.0306C28.843 31.1418 31.4227 28.5851 34.3375 26.4433L24.0732 16.2425ZM85.3472 76.9693C84.2576 78.4116 83.0635 79.7735 81.7745 81.044C80.4995 82.3204 79.1247 83.4949 77.6631 84.5567L87.8991 94.7575C88.9218 95.771 90.3089 96.3405 91.7553 96.3405C93.2016 96.3405 94.5888 95.771 95.6115 94.7575C96.6342 93.7439 97.2088 92.3691 97.2088 90.9357C97.2088 89.5022 96.6342 88.1275 95.6115 87.1139L85.3472 76.9693Z" fill="#4C4A46"/>
</g>
<defs>
<clipPath id="clip0_1_262">
<rect width="112" height="111" fill="white"/>
</clipPath>
</defs>
</svg>
