<svg width="102" height="96" viewBox="0 0 102 96" fill="none" xmlns="http://www.w3.org/2000/svg">
<g id="Heart icon" clip-path="url(#clip0_1_254)">
<path id="Vector" fill-rule="evenodd" clip-rule="evenodd" d="M49.8541 95.1663C38.1977 88.0321 27.3786 79.6352 17.5966 70.1305C10.6501 63.3019 5.35776 55.0009 2.11808 45.8526C-3.67042 27.9663 3.08708 7.57897 21.9316 1.46528C26.8341 -0.0631194 32.0365 -0.397303 37.0972 0.491091C42.1579 1.37948 46.9276 3.46424 51.0016 6.56844C55.0917 3.47607 59.8721 1.4029 64.9401 0.523583C70.0081 -0.355733 75.2151 -0.0154338 80.1226 1.51581C98.9926 7.57897 105.801 27.9663 99.9871 45.8526C96.8027 54.9859 91.5718 63.2861 84.6871 70.1305C74.8908 79.6296 64.064 88.026 52.4041 95.1663L51.0016 96L49.8541 95.1663Z" fill="#4C4A46"/>
<path id="Vector_2" fill-rule="evenodd" clip-rule="evenodd" d="M51.0016 96L49.8031 95.1916C38.1535 88.0378 27.3357 79.6334 17.5456 70.1305C10.5679 63.3124 5.24851 55.01 1.99056 45.8526C-3.77244 27.9663 2.98506 7.57894 21.8551 1.46525C26.7734 -0.0626783 31.9912 -0.392015 37.0655 0.505214C42.1397 1.40244 46.9205 3.49973 51.0016 6.61894V96Z" fill="#4C4A46"/>
<path id="Vector_3" fill-rule="evenodd" clip-rule="evenodd" d="M82.7717 35.3684C82.2711 35.3196 81.7862 35.1687 81.3474 34.9252C80.9085 34.6818 80.5253 34.351 80.2217 33.9537C79.5563 33.1075 79.2458 32.0398 79.3547 30.9726C79.4374 29.2773 78.9927 27.5976 78.0806 26.1608C77.1684 24.724 75.8329 23.5993 74.2547 22.9389C73.2464 22.6656 72.3849 22.0147 71.852 21.1238C71.3191 20.2329 71.1565 19.1716 71.3987 18.1642C71.4763 17.6638 71.6579 17.1847 71.9318 16.7573C72.2057 16.3299 72.5661 15.9633 72.9902 15.6809C73.4144 15.3984 73.893 15.206 74.3959 15.116C74.8988 15.026 75.4151 15.0403 75.9122 15.1579C76.1652 15.1927 76.4082 15.2787 76.6262 15.4105C79.7931 16.6975 82.4705 18.9398 84.2785 21.8193C86.0865 24.6989 86.9333 28.0694 86.6987 31.4526C86.7005 31.9775 86.5979 32.4976 86.3966 32.9831C86.1953 33.4686 85.8994 33.91 85.5257 34.2821C85.172 34.648 84.743 34.9344 84.2679 35.1218C83.7927 35.3092 83.2825 35.3933 82.7717 35.3684Z" fill="#73943D"/>
</g>
<defs>
<clipPath id="clip0_1_254">
<rect width="102" height="96" fill="white"/>
</clipPath>
</defs>
</svg>
