<svg width="111" height="109" viewBox="0 0 111 109" fill="none" xmlns="http://www.w3.org/2000/svg">
<g id="Safety icon" clip-path="url(#clip0_1_247)">
<path id="Vector" fill-rule="evenodd" clip-rule="evenodd" d="M58.4075 86.3731C58.4075 79.4535 61.1575 72.8172 66.0524 67.9242C70.9473 63.0313 77.5863 60.2824 84.5088 60.2824C86.8929 60.2373 89.2694 60.5673 91.551 61.2601C91.757 61.3658 91.9856 61.4197 92.217 61.4172C92.4485 61.4147 92.6758 61.3559 92.8795 61.2459C93.0831 61.1359 93.2568 60.9779 93.3857 60.7857C93.5145 60.5935 93.5946 60.3728 93.619 60.1428C94.5563 56.6444 95.0261 53.0375 95.0163 49.4159C95.0163 49.1925 95.0163 18.4088 95.0163 18.0177C95.0163 14.9728 93.2557 15.0008 92.5012 15.0008C86.701 15.2887 80.8902 14.7144 75.2588 13.2968C62.7671 9.72117 51.7285 0 47.5088 0C43.289 0 35.2686 9.72117 22.8607 13.2968C16.2962 14.8725 9.51358 15.3352 2.79577 14.6656C2.06918 14.6656 0.895464 14.4141 0.504225 16.9841C0.504225 17.6266 -0.0546875 49.0807 -0.0546875 49.4159C0.00120373 80.1438 38.0352 108.944 47.5088 108.944C50.5548 108.944 55.4733 106.514 62.0684 101.597C62.9347 100.843 62.4597 100.34 62.2082 99.9213C59.7186 95.8407 58.4035 91.1527 58.4075 86.3731Z" fill="#4C4A46"/>
<path id="Vector_2" fill-rule="evenodd" clip-rule="evenodd" d="M91.1859 101.709C90.7865 102.198 90.211 102.51 89.5835 102.578C88.9561 102.645 88.3271 102.464 87.8324 102.072L71.9313 88.9431C71.4605 88.499 71.1585 87.9052 71.077 87.2633C70.9954 86.6213 71.1393 85.971 71.4842 85.4234L73.5242 82.4064C73.6887 82.1506 73.905 81.9321 74.159 81.7649C74.4131 81.5976 74.6994 81.4854 74.9995 81.4354C75.2995 81.3854 75.6068 81.3988 75.9014 81.4746C76.196 81.5504 76.4714 81.687 76.71 81.8757L86.8822 90.256C87.3735 90.651 88.0003 90.8371 88.6276 90.7744C89.2549 90.7117 89.8324 90.4052 90.2357 89.9208L104.628 73.1602C104.811 72.9171 105.046 72.7175 105.316 72.5758C105.586 72.4341 105.883 72.3536 106.188 72.3403C106.492 72.327 106.796 72.381 107.077 72.4986C107.358 72.6162 107.609 72.7944 107.813 73.0205L110.301 75.5904C110.719 76.0924 110.948 76.725 110.948 77.3783C110.948 78.0315 110.719 78.6641 110.301 79.1661L91.1859 101.709Z" fill="#73943D"/>
</g>
<defs>
<clipPath id="clip0_1_247">
<rect width="111" height="109" fill="white"/>
</clipPath>
</defs>
</svg>
