<svg width="77" height="109" viewBox="0 0 77 109" fill="none" xmlns="http://www.w3.org/2000/svg">
<g id="Lunch icon" clip-path="url(#clip0_1_240)">
<path id="Vector" fill-rule="evenodd" clip-rule="evenodd" d="M53.379 68.7581L61.2929 71.4286C61.9589 71.6004 62.5367 72.0165 62.9123 72.595C63.3042 73.1577 63.4681 73.8492 63.3707 74.5289L61.4457 100.006C61.3537 100.637 61.3537 101.278 61.4457 101.909C61.6181 103.315 62.1791 104.644 63.0651 105.746C63.304 106.095 63.6043 106.397 63.9512 106.636C64.8359 107.436 65.8764 108.042 67.0068 108.417C68.5274 108.997 70.1823 109.125 71.7734 108.785C73.3615 108.43 74.8399 107.692 76.0818 106.636C76.3817 106.341 76.6179 105.987 76.7756 105.597C76.9333 105.206 77.0092 104.787 76.9984 104.365V7.91946C77.0534 5.92842 76.4279 3.97852 75.2262 2.39426C74.8136 1.70234 74.2386 1.12239 73.5516 0.705051C72.8645 0.287707 72.0862 0.045647 71.2845 0C70.1718 0.135107 69.0994 0.502573 68.1365 1.07879C67.1735 1.655 66.3411 2.42722 65.6929 3.34582C62.7716 6.84155 60.4951 10.8332 58.9707 15.1329C57.3153 19.2991 55.9872 23.5892 54.9984 27.9637C53.2764 35.4745 52.1525 43.1111 51.6373 50.8012C51.2299 56.1217 51.0771 61.1251 51.179 65.8113C51.1701 66.472 51.3738 67.1179 51.7596 67.6531C52.1539 68.2006 52.727 68.5916 53.379 68.7581Z" fill="#4C4A46"/>
<path id="Vector_2" fill-rule="evenodd" clip-rule="evenodd" d="M1.83413 41.0707C0.746335 39.2084 0.166659 37.0908 0.153572 34.9316V33.6117V3.92905C0.123434 3.35043 0.226266 2.7726 0.454106 2.24031C0.681946 1.70802 1.02868 1.23555 1.46746 0.859491C1.83477 0.531661 2.26696 0.285602 2.73565 0.137474C3.20434 -0.0106544 3.69892 -0.0574997 4.18691 1.46329e-05C5.14676 0.114955 6.02935 0.585638 6.66191 1.31992C7.29737 2.0263 7.64624 2.94628 7.63968 3.89835V19.8601C7.64013 20.3942 7.75815 20.9216 7.9853 21.4045C8.21245 21.8874 8.54311 22.3139 8.95357 22.6534C9.32175 23.0219 9.76998 23.2996 10.2631 23.4647C10.7561 23.6298 11.2806 23.6778 11.7952 23.6049C12.7794 23.4842 13.6889 23.0164 14.3619 22.285C14.7029 21.9558 14.9632 21.5516 15.1223 21.1042C15.2813 20.6567 15.3348 20.1783 15.2786 19.7066V3.92905C15.2574 3.35156 15.3643 2.77657 15.5916 2.24569C15.8188 1.71481 16.1607 1.24132 16.5925 0.859491C16.9932 0.473393 17.478 0.186385 18.0084 0.021216C18.5388 -0.143953 19.1001 -0.18274 19.648 -0.0920721C20.6406 0.000402927 21.5596 0.473033 22.2147 1.22784C22.8502 1.93421 23.199 2.85419 23.1925 3.80627V19.8601C23.1877 20.386 23.2942 20.9071 23.5049 21.3886C23.7156 21.8702 24.0257 22.3012 24.4147 22.6534C24.7847 23.0284 25.2379 23.3101 25.7371 23.4755C26.2363 23.6409 26.7674 23.6853 27.2869 23.6049C28.2751 23.4977 29.1891 23.0277 29.8536 22.285C30.393 21.5404 30.643 20.6234 30.5563 19.7066V3.92905C30.5528 2.98304 30.8891 2.06751 31.5036 1.35062C32.1649 0.582493 33.0947 0.0989759 34.1008 1.46329e-05C34.62 -0.0684395 35.1478 -0.0184346 35.6451 0.14631C36.1423 0.311055 36.5962 0.586301 36.973 0.951578C37.4048 1.33341 37.7467 1.80689 37.9739 2.33777C38.2012 2.86866 38.3081 3.44365 38.2869 4.02114V33.6424V34.3791C38.3691 36.6859 37.842 38.9734 36.7591 41.0093C35.2402 43.2723 33.2617 45.1867 30.9536 46.6266C29.1336 47.8757 27.5243 49.4094 26.1869 51.1695C25.0289 52.5981 24.4119 54.3924 24.4452 56.2343L27.8064 98.6863C27.8973 99.1207 27.9484 99.5625 27.9591 100.006C27.975 101.61 27.5636 103.189 26.7675 104.58C26.0445 105.862 24.9884 106.923 23.7119 107.649C22.3772 108.434 20.8585 108.848 19.3119 108.848C17.7653 108.848 16.2466 108.434 14.9119 107.649C13.5763 106.939 12.457 105.878 11.673 104.58C10.897 103.183 10.4968 101.606 10.5119 100.006V99.6993L13.873 56.2343C13.9135 54.3782 13.3324 52.5622 12.223 51.0775C10.9013 49.2816 9.26539 47.7422 7.39524 46.5345C5.21934 45.0766 3.33335 43.2236 1.83413 41.0707Z" fill="#73943D"/>
</g>
<defs>
<clipPath id="clip0_1_240">
<rect width="77" height="109" fill="white"/>
</clipPath>
</defs>
</svg>
